<svg width="47" height="47" viewBox="0 0 47 47" fill="none" xmlns="http://www.w3.org/2000/svg">
<path d="M41.2815 13.7084C40.9431 13.1221 40.4586 12.6335 39.8751 12.2903C39.2916 11.9471 38.6292 11.7609 37.9523 11.75H12.8857L11.7498 7.32422C11.6351 6.89698 11.379 6.52119 11.0234 6.25804C10.6678 5.9949 10.2336 5.85991 9.7915 5.87505H5.87484C5.35545 5.87505 4.85735 6.08137 4.49009 6.44863C4.12283 6.81589 3.9165 7.314 3.9165 7.83338C3.9165 8.35277 4.12283 8.85087 4.49009 9.21813C4.85735 9.58539 5.35545 9.79172 5.87484 9.79172H8.30317L13.7082 29.8842C13.8229 30.3114 14.079 30.6872 14.4346 30.9504C14.7902 31.2135 15.2244 31.3485 15.6665 31.3334H33.2915C33.6531 31.3323 34.0074 31.2311 34.3151 31.041C34.6227 30.8508 34.8717 30.5793 35.0344 30.2563L41.4578 17.4096C41.7362 16.8261 41.8658 16.1827 41.835 15.5368C41.8043 14.891 41.6141 14.2628 41.2815 13.7084ZM32.0773 27.4167H17.1548L13.9628 15.6667H37.9523L32.0773 27.4167Z" fill="#194EEA"/>
<path d="M14.6875 41.125C16.3098 41.125 17.625 39.8098 17.625 38.1875C17.625 36.5652 16.3098 35.25 14.6875 35.25C13.0652 35.25 11.75 36.5652 11.75 38.1875C11.75 39.8098 13.0652 41.125 14.6875 41.125Z" fill="#194EEA"/>
<path d="M34.271 41.125C35.8933 41.125 37.2085 39.8098 37.2085 38.1875C37.2085 36.5652 35.8933 35.25 34.271 35.25C32.6487 35.25 31.3335 36.5652 31.3335 38.1875C31.3335 39.8098 32.6487 41.125 34.271 41.125Z" fill="#194EEA"/>
</svg>
